name C:/MyDriveSym/Projects/mobilecap/Data\Session20210819_0002\mocap\ForceDataProcessed\walking1_forces.mot
datacolumns 19
datarows 24
range 0.00000000 0.01150000
endheader 
time	R_ground_force_vx	R_ground_force_vy	R_ground_force_vz	R_ground_force_px	R_ground_force_py	R_ground_force_pz	R_ground_torque_x	R_ground_torque_y	R_ground_torque_z	L_ground_force_vx	L_ground_force_vy	L_ground_force_vz	L_ground_force_px	L_ground_force_py	L_ground_force_pz	L_ground_torque_x	L_ground_torque_y	L_ground_torque_z	
          0.00000000	        -43.11170800	        283.46931200	         15.69788300	          0.11502400	          0.00600000	         -0.19707700	          0.00000000	          0.07858300	          0.00000000	          0.00000000	          0.00000000	          0.00000000	          0.70549100	          0.00000000	         -0.24113100	          0.00000000	          0.00000000	          0.00000000	
          0.00050000	        -43.64778300	        284.81340500	         15.56389100	          0.11502400	          0.00600000	         -0.19707700	          0.00000000	          0.07679400	          0.00000000	          0.00000000	          0.00000000	          0.00000000	          0.70549100	          0.00000000	         -0.24113100	          0.00000000	          0.00000000	          0.00000000	
          0.00100000	        -44.18651800	        286.16787500	         15.42851700	          0.11502400	          0.00600000	         -0.19707700	          0.00000000	          0.07504300	          0.00000000	          0.00000000	          0.00000000	          0.00000000	          0.70549100	          0.00000000	         -0.24113100	          0.00000000	          0.00000000	          0.00000000	
          0.00150000	        -44.72787600	        287.53269300	         15.29175800	          0.11502400	          0.00600000	         -0.19707700	          0.00000000	          0.07333000	          0.00000000	          0.00000000	          0.00000000	          0.00000000	          0.70549100	          0.00000000	         -0.24113100	          0.00000000	          0.00000000	          0.00000000	
          0.00200000	        -45.27182100	        288.90782700	         15.15361100	          0.11531800	          0.00600000	         -0.19704500	          0.00000000	          0.07165700	          0.00000000	          0.00000000	          0.00000000	          0.00000000	          0.70549100	          0.00000000	         -0.24113100	          0.00000000	          0.00000000	          0.00000000	
          0.00250000	        -45.81831400	        290.29324600	         15.01407100	          0.11561200	          0.00600000	         -0.19701300	          0.00000000	          0.07002500	          0.00000000	          0.00000000	          0.00000000	          0.00000000	          0.70549100	          0.00000000	         -0.24113100	          0.00000000	          0.00000000	          0.00000000	
          0.00300000	        -46.36731500	        291.68891400	         14.87313600	          0.11590700	          0.00600000	         -0.19698100	          0.00000000	          0.06843300	          0.00000000	          0.00000000	          0.00000000	          0.00000000	          0.70549100	          0.00000000	         -0.24113100	          0.00000000	          0.00000000	          0.00000000	
          0.00350000	        -46.91878600	        293.09479500	         14.73080300	          0.11620200	          0.00600000	         -0.19694800	          0.00000000	          0.06688300	          0.00000000	          0.00000000	          0.00000000	          0.00000000	          0.70549100	          0.00000000	         -0.24113100	          0.00000000	          0.00000000	          0.00000000	
          0.00400000	        -47.47268600	        294.51085000	         14.58706900	          0.11649700	          0.00600000	         -0.19691600	          0.00000000	          0.06537600	          0.00000000	          0.00000000	          0.00000000	          0.00000000	          0.70549100	          0.00000000	         -0.24113100	          0.00000000	          0.00000000	          0.00000000	
          0.00450000	        -48.02897600	        295.93703900	         14.44193100	          0.11679200	          0.00600000	         -0.19688300	          0.00000000	          0.06391200	          0.00000000	          0.00000000	          0.00000000	          0.00000000	          0.70549100	          0.00000000	         -0.24113100	          0.00000000	          0.00000000	          0.00000000	
          0.00500000	        -48.58761200	        297.37331900	         14.29538600	          0.11708800	          0.00600000	         -0.19685000	          0.00000000	          0.06249200	          0.00000000	          0.00000000	          0.00000000	          0.00000000	          0.70549100	          0.00000000	         -0.24113100	          0.00000000	          0.00000000	          0.00000000	
          0.00550000	        -49.14855600	        298.81964500	         14.14743300	          0.11738300	          0.00600000	         -0.19681800	          0.00000000	          0.06111600	          0.00000000	          0.00000000	          0.00000000	          0.00000000	          0.70549100	          0.00000000	         -0.24113100	          0.00000000	          0.00000000	          0.00000000	
          0.00600000	        -49.71176300	        300.27597100	         13.99806800	          0.11767900	          0.00600000	         -0.19678500	          0.00000000	          0.05978600	          0.00000000	          0.00000000	          0.00000000	          0.00000000	          0.70549100	          0.00000000	         -0.24113100	          0.00000000	          0.00000000	          0.00000000	
          0.00650000	        -50.27719100	        301.74224900	         13.84729000	          0.11797400	          0.00600000	         -0.19675100	          0.00000000	          0.05850100	          0.00000000	          0.00000000	          0.00000000	          0.00000000	          0.70549100	          0.00000000	         -0.24113100	          0.00000000	          0.00000000	          0.00000000	
          0.00700000	        -50.84479900	        303.21842900	         13.69509500	          0.11827000	          0.00600000	         -0.19671800	          0.00000000	          0.05726300	          0.00000000	          0.00000000	          0.00000000	          0.00000000	          0.70549100	          0.00000000	         -0.24113100	          0.00000000	          0.00000000	          0.00000000	
          0.00750000	        -51.41454100	        304.70445800	         13.54148300	          0.11856500	          0.00600000	         -0.19668500	          0.00000000	          0.05607200	          0.00000000	          0.00000000	          0.00000000	          0.00000000	          0.70549100	          0.00000000	         -0.24113100	          0.00000000	          0.00000000	          0.00000000	
          0.00800000	        -51.98637600	        306.20028300	         13.38645000	          0.11886100	          0.00600000	         -0.19665100	          0.00000000	          0.05492900	          0.00000000	          0.00000000	          0.00000000	          0.00000000	          0.70549100	          0.00000000	         -0.24113100	          0.00000000	          0.00000000	          0.00000000	
          0.00850000	        -52.56025800	        307.70584700	         13.22999500	          0.11915700	          0.00600000	         -0.19661800	          0.00000000	          0.05383400	          0.00000000	          0.00000000	          0.00000000	          0.00000000	          0.70549100	          0.00000000	         -0.24113100	          0.00000000	          0.00000000	          0.00000000	
          0.00900000	        -53.13614400	        309.22109300	         13.07211600	          0.11945200	          0.00600000	         -0.19658400	          0.00000000	          0.05278700	          0.00000000	          0.00000000	          0.00000000	          0.00000000	          0.70549100	          0.00000000	         -0.24113100	          0.00000000	          0.00000000	          0.00000000	
          0.00950000	        -53.71398900	        310.74595900	         12.91281200	          0.11974700	          0.00600000	         -0.19655000	          0.00000000	          0.05179000	          0.00000000	          0.00000000	          0.00000000	          0.00000000	          0.70549100	          0.00000000	         -0.24113100	          0.00000000	          0.00000000	          0.00000000	
          0.01000000	        -54.29374700	        312.28038600	         12.75208000	          0.12004300	          0.00600000	         -0.19651600	          0.00000000	          0.05084300	          0.00000000	          0.00000000	          0.00000000	          0.00000000	          0.70549100	          0.00000000	         -0.24113100	          0.00000000	          0.00000000	          0.00000000	
          0.01050000	        -54.87537500	        313.82430700	         12.58991800	          0.12033800	          0.00600000	         -0.19648200	          0.00000000	          0.04994500	          0.00000000	          0.00000000	          0.00000000	          0.00000000	          0.70549100	          0.00000000	         -0.24113100	          0.00000000	          0.00000000	          0.00000000	
          0.01100000	        -55.45882700	        315.37765800	         12.42632600	          0.12063200	          0.00600000	         -0.19644800	          0.00000000	          0.04909900	          0.00000000	          0.00000000	          0.00000000	          0.00000000	          0.70549100	          0.00000000	         -0.24113100	          0.00000000	          0.00000000	          0.00000000	
          0.01150000	        -56.04405700	        316.94037100	         12.26130200	          0.12092700	          0.00600000	         -0.19641400	          0.00000000	          0.04830300	          0.00000000	          0.00000000	          0.00000000	          0.00000000	          0.70549100	          0.00000000	         -0.24113100	          0.00000000	          0.00000000	          0.00000000	
